<?xml version="1.0" encoding="utf-8"?>
<!-- Generator: Adobe Illustrator 23.0.3, SVG Export Plug-In . SVG Version: 6.00 Build 0)  -->
<svg version="1.1" id="Layer_1" xmlns="http://www.w3.org/2000/svg" xmlns:xlink="http://www.w3.org/1999/xlink" x="0px" y="0px"
	 viewBox="0 0 108 117.44" style="enable-background:new 0 0 108 117.44;" xml:space="preserve">
<style type="text/css">
	.st0{fill:#002D62;}
</style>
<path class="st0" d="M53.97,63.77L31.98,33.53v21.99h8.8v21.71H0.09V55.52h8.25V21.71H0.09V0h31.95l22.03,30.51L76.14,0h31.95v21.71
	h-8.25v33.81h8.25v21.71H67.42V55.52h8.79V33.53L53.97,63.77z"/>
<path class="st0" d="M86.39,117.05v-0.78c0.99-0.06,1.75-0.14,1.75-0.95c0-0.29-0.08-0.6-0.17-0.86l-0.43-1.48h-5.12l-0.45,1.25
	c-0.1,0.31-0.18,0.6-0.18,0.9c0,1.03,1.09,1.09,1.97,1.13v0.78h-5.98v-0.78c1.52-0.06,2.01-0.37,2.57-1.89l3.92-10.77l-0.23-0.35
	c1.68-0.55,2.16-0.8,2.88-1.34c0.29,0.99,0.33,1.11,0.66,2.14l3.21,9.86c0.58,1.75,0.84,2.18,2.38,2.34v0.78H86.39z M85.09,105.41
	l-2.13,6.01h4.17L85.09,105.41z M40.07,113.83c-0.64,1.05-2.19,3.62-6.19,3.62c-4.37,0-7.2-3.22-7.2-7.46c0-3.92,2.4-7.79,7.3-7.79
	c2.58,0,3.94,1.09,4.78,1.75l1-0.9l0.08,4.4l-0.64,0.12c-0.25-0.84-0.62-1.52-1.56-2.55c-0.45-0.47-1.52-1.42-3.04-1.42
	c-2.62,0-4.68,2.13-4.68,5.89c0,3.19,1.7,6.19,5.06,6.19c2.54,0,3.49-1.42,4.25-2.5L40.07,113.83z M41.14,117.05v-0.78
	c1.64-0.14,1.66-0.49,1.66-1.89c0.02-0.51,0.02-1.03,0.02-1.54v-6.08c0-0.94,0-1.89-0.06-2.34c-0.08-0.86-0.49-0.99-1.62-1.09v-0.78
	h6.21v0.78c-1.21,0.12-1.66,0.16-1.81,0.96c-0.1,0.47-0.12,1.54-0.12,2.4v2c1.25,0.06,2.13,0.1,3.34,0.1c1.23,0,2.21-0.04,3.44-0.1
	v-2.44c-0.02-2.65-0.04-2.75-2.01-2.94v-0.78h6.29v0.78c-1.68,0.21-1.68,0.23-1.68,2.98v6.12c0,0.57,0.02,2.4,0.08,2.83
	c0.1,0.76,0.53,0.9,1.6,1.01v0.78h-6.29v-0.78c1.46-0.17,1.85-0.21,1.97-1.21c0.04-0.41,0.04-0.96,0.04-2.01v-2.66
	c-1.15-0.04-2.11-0.1-3.3-0.1c-1.25,0-2.23,0.04-3.48,0.1v2.66c0.02,3.02,0.06,3.02,1.93,3.23v0.78H41.14z M57.67,117.05v-0.78
	c1.42-0.19,1.71-0.35,1.73-1.87v-1.85v-5.88c-0.02-3.02-0.02-3.1-1.73-3.35v-0.78h6.03v0.78C62,103.49,62,103.58,62,106.68v5.86
	c0,0.51,0.02,2.14,0.06,2.57c0.1,0.88,0.51,1.09,1.64,1.17v0.78H57.67z M20.46,117.05v-0.78c1.42-0.19,1.71-0.35,1.73-1.87v-1.85
	v-5.88c-0.02-3.02-0.02-3.1-1.73-3.35v-0.78h6.02v0.78c-1.71,0.16-1.71,0.25-1.71,3.35v5.86c0,0.51,0.02,2.14,0.06,2.57
	c0.1,0.88,0.51,1.09,1.64,1.17v0.78H20.46z M12.69,117.05v-0.78c1.83-0.12,1.83-0.21,1.85-2.9v-7.29l-5.07,11.16H8.19l-4.66-11.3
	l-0.11,8.53c0,1.42,0.16,1.69,1.71,1.81v0.78H0.09v-0.78c1.17-0.06,1.62-0.23,1.71-1.21c0.04-0.39,0.1-1.6,0.12-2.4l0.21-6.08
	c0.02-0.47,0.02-1.17,0.02-1.69c0-1.44-0.29-1.54-1.58-1.56v-0.78h4.56l4.52,11.01l4.97-11.01h4.42v0.86
	c-1.73,0.1-1.75,0.29-1.73,2.55v5.98c0,0.99,0.02,2.22,0.08,2.96c0.08,1.07,0.49,1.27,1.64,1.38v0.78H12.69z M92.75,117.05v-0.78
	c1.19-0.06,1.64-0.08,1.81-0.9c0.21-0.97,0.27-9.57,0.29-11.07c-0.8-0.74-1.13-0.88-2.1-0.96v-0.78h4.36
	c1.21,1.73,1.48,2.12,3.62,4.77l4.05,5.01v-6.49c-0.02-2.3-0.08-2.42-2.38-2.51v-0.78h5.71v0.78c-1.58,0.02-1.73,0.35-1.75,2.71
	l-0.21,11.2h-0.86l-1.29-1.62c-0.66-0.82-1.31-1.64-1.97-2.45l-5.73-7.07v7.52c0,2.34,0.16,2.42,2.38,2.65v0.78H92.75z
	 M78.43,110.64v0.78c-1.31,0.08-1.31,0.45-1.35,3.21v1.09c-1.13,0.7-2.74,1.71-5.59,1.71c-4.99,0-7.38-3.78-7.38-7.58
	c0-4.64,3.14-7.66,7.08-7.66c2.48,0,3.9,0.92,5.09,1.64l0.76-0.86l0.11,4.54l-0.59,0.1c-0.3-0.86-0.74-1.86-1.83-2.95
	c-0.48-0.47-1.41-1.08-2.87-1.08c-2.53,0-4.64,2.14-4.64,6.31c0,3.33,1.65,6.18,4.47,6.18c1.61,0,2.44-1.13,2.51-1.21
	c0.26-0.39,0.32-0.74,0.3-1.38c-0.07-1.85-0.31-1.89-1.92-2.05v-0.78H78.43z"/>
<path class="st0" d="M100.35,93.18c0,3.31-2.26,5.05-4.8,5.05c-2.79,0-4.97-2.01-4.97-5.07c0-2.62,1.75-4.98,4.84-4.97
	C98.33,88.21,100.35,90.28,100.35,93.18z M95.57,97.35c0.54-0.02,1.31-0.29,1.9-1.19c0.68-1.04,0.82-2,0.78-3.24
	c-0.04-1.24-0.38-2.3-1.09-3.05c-0.31-0.33-0.92-0.81-1.72-0.79c-0.8,0-1.39,0.5-1.69,0.84c-0.68,0.77-0.99,1.85-0.99,3.08
	c0,1.25,0.17,2.2,0.88,3.22C94.25,97.11,95.02,97.35,95.57,97.35z M100.82,97.46v0.53h3.97v-0.53c-0.99-0.1-1.11-0.19-1.14-1.24
	l0.01-2.74h1.06c1.07,0,1.64,0.1,1.71,1.17h0.46V91.5h-0.46c-0.05,1.03-0.34,1.13-1.51,1.13h-1.26l0-3.32
	c0.34-0.04,0.53-0.05,1.14-0.05c1.87,0,2.48-0.01,2.73,1.49H108l-0.15-2.35h-7.03v0.52c0.69,0.07,0.99,0.11,1.09,0.56
	c0.07,0.3,0.08,1.36,0.08,1.74l0,3.37c0,0.26-0.01,1.41-0.03,1.64C101.93,97.27,101.81,97.37,100.82,97.46z M22.33,97.92v-0.52
	c0.94-0.12,1.13-0.23,1.14-1.24v-1.22v-3.88c-0.01-2-0.01-2.05-1.14-2.21v-0.52h3.98v0.52c-1.13,0.11-1.13,0.16-1.13,2.21v3.87
	c0,0.34,0.01,1.41,0.04,1.7c0.07,0.58,0.34,0.72,1.09,0.77v0.52H22.33z M62.1,97.92v-0.52c0.94-0.12,1.13-0.23,1.14-1.24v-1.22
	v-3.88c-0.01-2-0.01-2.05-1.14-2.21v-0.52h3.98v0.52c-1.13,0.11-1.13,0.16-1.13,2.21v3.87c0,0.34,0.01,1.41,0.04,1.7
	c0.07,0.58,0.34,0.72,1.09,0.77v0.52H62.1z M11.16,97.92v-0.52c0.79-0.04,1.09-0.05,1.2-0.6c0.14-0.64,0.18-6.33,0.19-7.32
	c-0.53-0.49-0.75-0.58-1.39-0.64v-0.52h2.88c0.8,1.14,0.98,1.4,2.39,3.15l2.68,3.31v-4.29c-0.01-1.52-0.05-1.6-1.58-1.66v-0.52h3.78
	v0.52c-1.05,0.01-1.14,0.23-1.15,1.79l-0.14,7.4h-0.57l-0.86-1.07c-0.43-0.54-0.87-1.09-1.3-1.62l-3.79-4.67v4.97
	c0,1.55,0.11,1.6,1.58,1.75v0.52H11.16z M54.66,94.93l0.49-0.05c0.53,1.56,1.41,2.4,2.85,2.4c1.02,0,1.92-0.43,1.92-1.47
	c0-1.09-1.05-1.52-1.51-1.71c-0.38-0.15-0.79-0.27-1.17-0.42c-0.79-0.29-2.27-0.9-2.27-2.76c0-1.79,1.41-2.8,3.06-2.8
	c0.64,0,1.39,0.13,2.2,0.65l0.58-0.42l0.31,2.85l-0.47,0.1c-0.16-0.62-0.29-0.92-0.67-1.42c-0.46-0.6-1.11-0.88-1.88-0.88
	c-1.02,0-1.62,0.49-1.62,1.25c0,1.14,1.13,1.52,2.2,1.88c0.54,0.18,0.99,0.33,1.39,0.56c0.76,0.45,1.39,1.29,1.39,2.45
	c0,1.66-1.36,3.03-3.38,3.03c-1.3,0-2.11-0.52-2.49-0.76l-0.8-0.58L54.66,94.93z M69.45,97.92v-0.41c0.88-0.01,1.13-0.34,1.13-1.1
	v-7.06h-1.2c-1.09,0-1.81-0.04-1.89,1.67h-0.5l0.08-2.69h8.72l0.08,2.69h-0.5c-0.08-1.71-0.8-1.67-1.89-1.67h-1.2v7.06
	c0,0.76,0.24,1.09,1.13,1.1l0,0.41H69.45z M4.32,88.34v0.52c-1.28,0.1-1.28,0.14-1.29,2.17v2.25c0,1.17,0.02,2.17,0.64,3.07
	c0.49,0.71,1.32,0.81,1.75,0.81c1.37,0,2.12-0.71,2.45-1.84c0.27-0.9,0.29-2.58,0.29-3.69c0-0.35,0-1.49-0.01-1.81
	c-0.05-0.87-0.5-0.9-1.36-0.96v-0.52h3.65v0.52c-0.9-0.01-1.09,0.19-1.14,1.14c-0.01,0.23-0.12,2.89-0.14,3.3
	c-0.03,0.73-0.07,1.45-0.23,2.15c-0.65,2.58-3.17,2.71-3.83,2.71c-0.53,0-1.62-0.08-2.51-0.68c-1.43-0.96-1.44-2.4-1.44-3.95v-2.17
	c-0.01-1.03-0.01-1.49-0.04-1.74c-0.08-0.6-0.38-0.72-1.1-0.76v-0.52H4.32z M36.82,88.34v0.52c-0.92,0.14-1.05,0.39-1.83,2.3
	l-2.92,6.97h-0.52l-2.62-7.08c-0.65-1.82-0.73-2.04-1.7-2.19v-0.52h4.55v0.52c-0.77,0.03-1.28,0.05-1.28,0.61
	c0,0.27,0.07,0.5,0.33,1.3l1.67,4.88l1.96-5.04c0.12-0.34,0.29-0.77,0.29-1.02c0-0.69-0.68-0.72-1.28-0.73v-0.52H36.82z
	 M79.33,97.92v-0.52c0.75-0.08,1.03-0.11,1.22-0.3c0.22-0.22,0.22-0.46,0.23-1.51v-1.68l-2.55-3.95c-0.69-1.03-0.71-1.06-1.63-1.11
	v-0.53h5v0.53c-1,0.03-1.45,0.05-1.45,0.52c0,0.26,0.18,0.56,0.42,0.96l1.47,2.4l1.36-2.39c0.25-0.47,0.38-0.76,0.38-0.98
	c0-0.46-0.39-0.47-1.06-0.52v-0.53h3.75v0.53c-0.96,0.03-1.25,0.31-2.35,2.11l-1.49,2.5v2c0,1.74,0.01,1.87,1.44,1.96v0.52H79.33z
	 M44.53,97.92c0-0.69,0.12-1.83,0.2-2.48h-0.46c-0.33,1.71-1.29,1.63-2.68,1.63c-1.28,0-1.53-0.34-1.53-0.96v-2.68h1.03
	c1.18,0,1.52,0.1,1.52,1.18h0.46v-3.17h-0.46c-0.09,0.86-0.27,1.13-1.51,1.13h-1.04v-3.38h1.18c1.63,0,2.21,0.12,2.43,1.43h0.43
	l-0.05-2.28h-6.83v0.52c0.69,0.07,0.99,0.11,1.09,0.56c0.07,0.3,0.08,1.36,0.08,1.74v3.37c0,0.26-0.01,1.41-0.03,1.64
	c-0.03,1.05-0.15,1.14-1.14,1.24v0.53H44.53z M48.49,92.78c0.26,0.05,0.62,0.09,0.9,0.09c1.09,0,1.91-0.85,1.96-1.62
	c0.06-1.11-0.5-2.08-2.27-2.08c-0.24,0-0.39,0.01-0.58,0.05V92.78z M48.49,94.87c0.01,2.2,0.01,2.5,1.17,2.52v0.53h-4v-0.53
	c1.03-0.08,1.14-0.24,1.15-1.28c0.01-0.39,0.01-0.84,0.01-1.23v-3.47c0-1.15-0.01-1.56-0.05-1.87c-0.07-0.53-0.33-0.62-1.11-0.69
	v-0.52L50,88.35c2.36,0,3.11,1.13,3.11,2.46c0,0.92-0.57,2.12-1.89,2.53l1.7,2.95c0.61,1.13,0.94,1.39,1.71,1.49v0.33
	c-0.2,0.01-0.41,0.03-0.62,0.03c-1.81,0-2.55-0.62-3.31-2.24l-0.53-1.13c-0.57-1.21-0.76-1.13-1.67-1.15L48.49,94.87z"/>
</svg>
